<svg width="63" height="72" viewBox="0 0 63 72" fill="none" xmlns="http://www.w3.org/2000/svg">
<g clip-path="url(#clip0_48_215)">
<path d="M18 0C20.4891 0 22.5 2.01094 22.5 4.5V9H40.5V4.5C40.5 2.01094 42.5109 0 45 0C47.4891 0 49.5 2.01094 49.5 4.5V9H56.25C59.9766 9 63 12.0234 63 15.75V22.5H0V15.75C0 12.0234 3.02344 9 6.75 9H13.5V4.5C13.5 2.01094 15.5109 0 18 0ZM0 27H63V65.25C63 68.9766 59.9766 72 56.25 72H6.75C3.02344 72 0 68.9766 0 65.25V27ZM9 38.25V42.75C9 43.9875 10.0125 45 11.25 45H15.75C16.9875 45 18 43.9875 18 42.75V38.25C18 37.0125 16.9875 36 15.75 36H11.25C10.0125 36 9 37.0125 9 38.25ZM27 38.25V42.75C27 43.9875 28.0125 45 29.25 45H33.75C34.9875 45 36 43.9875 36 42.75V38.25C36 37.0125 34.9875 36 33.75 36H29.25C28.0125 36 27 37.0125 27 38.25ZM47.25 36C46.0125 36 45 37.0125 45 38.25V42.75C45 43.9875 46.0125 45 47.25 45H51.75C52.9875 45 54 43.9875 54 42.75V38.25C54 37.0125 52.9875 36 51.75 36H47.25ZM9 56.25V60.75C9 61.9875 10.0125 63 11.25 63H15.75C16.9875 63 18 61.9875 18 60.75V56.25C18 55.0125 16.9875 54 15.75 54H11.25C10.0125 54 9 55.0125 9 56.25ZM29.25 54C28.0125 54 27 55.0125 27 56.25V60.75C27 61.9875 28.0125 63 29.25 63H33.75C34.9875 63 36 61.9875 36 60.75V56.25C36 55.0125 34.9875 54 33.75 54H29.25ZM45 56.25V60.75C45 61.9875 46.0125 63 47.25 63H51.75C52.9875 63 54 61.9875 54 60.75V56.25C54 55.0125 52.9875 54 51.75 54H47.25C46.0125 54 45 55.0125 45 56.25Z" fill="#1D1D1D"/>
</g>
<defs>
<clipPath id="clip0_48_215">
<rect width="63" height="72" fill="white"/>
</clipPath>
</defs>
</svg>
