<svg width="81" height="72" viewBox="0 0 81 72" fill="none" xmlns="http://www.w3.org/2000/svg">
<g clip-path="url(#clip0_48_209)">
<path d="M56.9681 16.875C56.9681 24.5531 46.7613 38.2359 42.2793 43.875C41.2041 45.225 39.2074 45.225 38.1463 43.875C33.6642 38.2359 23.4574 24.5531 23.4574 16.875C23.4574 7.55156 30.9555 0 40.2128 0C49.4701 0 56.9681 7.55156 56.9681 16.875ZM58.0851 28.1812C58.5738 27.2109 59.0206 26.2406 59.4255 25.2844C59.4953 25.1156 59.5652 24.9328 59.635 24.7641L75.8318 18.2391C78.0379 17.3531 80.4255 18.9844 80.4255 21.375V59.4562C80.4255 60.8344 79.5878 62.0719 78.3172 62.5922L58.0851 70.7344V28.1812ZM19.2128 19.4484C19.5479 21.4312 20.2181 23.4281 21 25.2844C21.4049 26.2406 21.8517 27.2109 22.3404 28.1812V63.5344L4.59375 70.6922C2.38763 71.5781 0 69.9469 0 67.5563V29.475C0 28.0969 0.837766 26.8594 2.10838 26.3391L19.2267 19.4484H19.2128ZM45.7699 46.6875C47.7108 44.2406 50.7547 40.2609 53.617 35.8594V70.9172L26.8085 63.1969V35.8594C29.6709 40.2609 32.7148 44.2406 34.6556 46.6875C37.5179 50.2875 42.9076 50.2875 45.7699 46.6875ZM40.2128 21.375C41.694 21.375 43.1146 20.7824 44.162 19.7275C45.2094 18.6726 45.7979 17.2418 45.7979 15.75C45.7979 14.2582 45.2094 12.8274 44.162 11.7725C43.1146 10.7176 41.694 10.125 40.2128 10.125C38.7315 10.125 37.3109 10.7176 36.2635 11.7725C35.2161 12.8274 34.6277 14.2582 34.6277 15.75C34.6277 17.2418 35.2161 18.6726 36.2635 19.7275C37.3109 20.7824 38.7315 21.375 40.2128 21.375Z" fill="#1D1D1D"/>
</g>
<defs>
<clipPath id="clip0_48_209">
<rect width="80.4255" height="72" fill="white"/>
</clipPath>
</defs>
</svg>
