<svg width="72" height="72" viewBox="0 0 72 72" fill="none" xmlns="http://www.w3.org/2000/svg">
<path d="M23.625 11.25C21.7547 11.25 20.25 12.7547 20.25 14.625V57.375C20.25 58.5563 20.0531 59.6953 19.6734 60.75H61.875C63.7453 60.75 65.25 59.2453 65.25 57.375V14.625C65.25 12.7547 63.7453 11.25 61.875 11.25H23.625ZM10.125 67.5C4.52813 67.5 0 62.9719 0 57.375V15.75C0 13.8797 1.50469 12.375 3.375 12.375C5.24531 12.375 6.75 13.8797 6.75 15.75V57.375C6.75 59.2453 8.25469 60.75 10.125 60.75C11.9953 60.75 13.5 59.2453 13.5 57.375V14.625C13.5 9.02813 18.0281 4.5 23.625 4.5H61.875C67.4719 4.5 72 9.02813 72 14.625V57.375C72 62.9719 67.4719 67.5 61.875 67.5H10.125ZM24.75 19.125C24.75 17.2547 26.2547 15.75 28.125 15.75H41.625C43.4953 15.75 45 17.2547 45 19.125V30.375C45 32.2453 43.4953 33.75 41.625 33.75H28.125C26.2547 33.75 24.75 32.2453 24.75 30.375V19.125ZM52.875 15.75H57.375C59.2453 15.75 60.75 17.2547 60.75 19.125C60.75 20.9953 59.2453 22.5 57.375 22.5H52.875C51.0047 22.5 49.5 20.9953 49.5 19.125C49.5 17.2547 51.0047 15.75 52.875 15.75ZM52.875 27H57.375C59.2453 27 60.75 28.5047 60.75 30.375C60.75 32.2453 59.2453 33.75 57.375 33.75H52.875C51.0047 33.75 49.5 32.2453 49.5 30.375C49.5 28.5047 51.0047 27 52.875 27ZM28.125 38.25H57.375C59.2453 38.25 60.75 39.7547 60.75 41.625C60.75 43.4953 59.2453 45 57.375 45H28.125C26.2547 45 24.75 43.4953 24.75 41.625C24.75 39.7547 26.2547 38.25 28.125 38.25ZM28.125 49.5H57.375C59.2453 49.5 60.75 51.0047 60.75 52.875C60.75 54.7453 59.2453 56.25 57.375 56.25H28.125C26.2547 56.25 24.75 54.7453 24.75 52.875C24.75 51.0047 26.2547 49.5 28.125 49.5Z" fill="#1D1D1D"/>
</svg>
